<svg width="12" height="14" fill="none" xmlns="http://www.w3.org/2000/svg"><path fill-rule="evenodd" clip-rule="evenodd" d="M8.667 7.667h-2c-.367 0-.667.3-.667.666v2c0 .367.3.667.667.667h2c.366 0 .666-.3.666-.667v-2c0-.366-.3-.666-.666-.666zm0-6.667v.667H3.333V1c0-.367-.3-.667-.666-.667C2.3.333 2 .633 2 1v.667h-.667c-.74 0-1.326.6-1.326 1.333L0 12.333c0 .734.593 1.334 1.333 1.334h9.334c.733 0 1.333-.6 1.333-1.334V3c0-.733-.6-1.333-1.333-1.333H10V1c0-.367-.3-.667-.667-.667-.366 0-.666.3-.666.667zM10 12.333H2a.669.669 0 01-.667-.666V5h9.334v6.667c0 .366-.3.666-.667.666z" fill="#5787A4"/></svg>