<?xml version="1.0" standalone="no"?>
<!DOCTYPE svg PUBLIC "-//W3C//DTD SVG 20010904//EN"
 "http://www.w3.org/TR/2001/REC-SVG-20010904/DTD/svg10.dtd">
<svg version="1.0" xmlns="http://www.w3.org/2000/svg"
 width="88.000000pt" height="88.000000pt" viewBox="0 0 88.000000 88.000000"
 preserveAspectRatio="xMidYMid meet">
<metadata>
Created by potrace 1.11, written by Peter Selinger 2001-2013
</metadata>
<g transform="translate(0.000000,88.000000) scale(0.100000,-0.100000)"
fill="#000000" stroke="none">
<path d="M180 851 c-5 -11 -10 -29 -10 -40 0 -12 -3 -22 -7 -22 -5 -1 -24 -3
-43 -5 -42 -4 -80 -43 -81 -82 -1 -37 -1 -580 0 -615 1 -17 12 -38 27 -52 l27
-25 347 0 347 0 27 25 c15 14 26 35 27 52 6 183 -1 635 -10 652 -15 27 -48 45
-86 46 -24 1 -30 6 -36 31 -8 43 -17 54 -43 54 -30 0 -46 -18 -46 -55 l0 -30
-172 1 c-95 1 -176 2 -180 3 -5 0 -8 14 -8 29 0 15 -5 33 -12 40 -18 18 -56
14 -68 -7z m571 -313 c4 -176 -2 -423 -11 -432 -15 -15 -577 -15 -597 -1 -13
9 -15 47 -15 221 0 115 1 217 1 227 1 16 23 17 311 17 l310 0 1 -32z"/>
<path d="M457 385 c-14 -10 -17 -29 -17 -98 0 -104 3 -107 118 -107 98 0 105
7 107 101 2 108 -4 114 -106 115 -54 1 -92 -3 -102 -11z"/>
</g>
</svg>
