<svg version="1.0" xmlns="http://www.w3.org/2000/svg" width="117.333" height="117.333" viewBox="0 0 88 88"><path d="M18 2.9c-.5 1.1-1 2.9-1 4 0 1.2-.3 2.2-.7 2.2-.5.1-2.4.3-4.3.5-4.2.4-8 4.3-8.1 8.2-.1 3.7-.1 58 0 61.5.1 1.7 1.2 3.8 2.7 5.2L9.3 87h69.4l2.7-2.5c1.5-1.4 2.6-3.5 2.7-5.2.6-18.3-.1-63.5-1-65.2-1.5-2.7-4.8-4.5-8.6-4.6-2.4-.1-3-.6-3.6-3.1-.8-4.3-1.7-5.4-4.3-5.4-3 0-4.6 1.8-4.6 5.5v3l-17.2-.1c-9.5-.1-17.6-.2-18-.3-.5 0-.8-1.4-.8-2.9s-.5-3.3-1.2-4C23 .4 19.2.8 18 2.9zm57.1 31.3c.4 17.6-.2 42.3-1.1 43.2-1.5 1.5-57.7 1.5-59.7.1-1.3-.9-1.5-4.7-1.5-22.1 0-11.5.1-21.7.1-22.7C13 31.1 15.2 31 44 31h31l.1 3.2z"/><path d="M45.7 49.5c-1.4 1-1.7 2.9-1.7 9.8 0 10.4.3 10.7 11.8 10.7 9.8 0 10.5-.7 10.7-10.1.2-10.8-.4-11.4-10.6-11.5-5.4-.1-9.2.3-10.2 1.1z"/></svg>