<svg width="17" height="14" fill="none" xmlns="http://www.w3.org/2000/svg"><path d="M8.5 0a8.501 8.501 0 017.125 13.137.71.71 0 01-.593.321H1.969a.708.708 0 01-.594-.321A8.501 8.501 0 018.5 0zM2.364 12.042h12.272a7.043 7.043 0 00.912-2.834h-1.381V7.792h1.381a7.025 7.025 0 00-.592-2.201l-1.194.69-.708-1.228 1.192-.688a7.141 7.141 0 00-1.61-1.61l-.69 1.192-1.226-.709.69-1.194a7.025 7.025 0 00-2.201-.592v1.381H7.792v-1.38a7.025 7.025 0 00-2.201.591l.69 1.194-1.228.709-.688-1.193a7.142 7.142 0 00-1.61 1.611l1.192.689-.708 1.226-1.195-.689a7.025 7.025 0 00-.592 2.2h1.382v1.417H1.452c.099.999.41 1.965.912 2.834z" fill="#B8BEC1"/><path d="M6.982 5.302l1.094 1.824a2.129 2.129 0 11-1.214.73L5.768 6.03l1.214-.729zM8.5 9.917a.708.708 0 100-1.417.708.708 0 000 1.417z" fill="#B8BEC1"/></svg>